HIERARCHY
ROOT SpineBase
{
  OFFSET 0.000000 0.000000 0.000000
  CHANNELS 6 Xposition Yposition Zposition Zrotation Xrotation Yrotation
  JOINT SpineMid
  {
    OFFSET 0.000000 27.611513 0.000000
    CHANNELS 3 Zrotation Xrotation Yrotation
    JOINT SpineShoulder
    {
      OFFSET -0.149532 20.558703 -0.761366
      CHANNELS 3 Zrotation Xrotation Yrotation
      JOINT Neck
      {
        OFFSET -0.065834 6.870651 -0.577956
        CHANNELS 3 Zrotation Xrotation Yrotation
        JOINT Head
        {
          OFFSET 2.732541 13.646960 -1.413233
          CHANNELS 3 Zrotation Xrotation Yrotation
          End Site
          {
            OFFSET 0 0 0
          }
        }
      }
      JOINT ShoulderLeft
      {
        OFFSET -13.536641 -3.034118 -5.986445
        CHANNELS 3 Zrotation Xrotation Yrotation
        JOINT ElbowLeft
        {
          OFFSET -7.341947 -19.720444 2.000483
          CHANNELS 3 Zrotation Xrotation Yrotation
          JOINT WristLeft
          {
            OFFSET 16.867365 -15.172774 -13.600503
            CHANNELS 3 Zrotation Xrotation Yrotation
            JOINT HandLeft
            {
              OFFSET 2.423089 -1.161339 -1.443247
              CHANNELS 3 Zrotation Xrotation Yrotation
              JOINT HandTipLeft
              {
                OFFSET 2.284871 -3.363926 -2.764130
                CHANNELS 3 Zrotation Xrotation Yrotation
                End Site
                {
                  OFFSET 0 0 0
                }
              }
              JOINT ThumbLeft
              {
                OFFSET 3.049950 2.286100 1.749814
                CHANNELS 3 Zrotation Xrotation Yrotation
                End Site
                {
                  OFFSET 0 0 0
                }
              }
            }
          }
        }
      }
      JOINT ShoulderRight
      {
        OFFSET 16.536023 -3.173857 4.102075
        CHANNELS 3 Zrotation Xrotation Yrotation
        JOINT ElbowRight
        {
          OFFSET 3.823739 -21.032170 5.323231
          CHANNELS 3 Zrotation Xrotation Yrotation
          JOINT WristRight
          {
            OFFSET -4.108746 -13.647029 -19.441781
            CHANNELS 3 Zrotation Xrotation Yrotation
            JOINT HandRight
            {
              OFFSET -2.436483 -1.484873 -1.472924
              CHANNELS 3 Zrotation Xrotation Yrotation
              JOINT HandTipRight
              {
                OFFSET 0.171739 -1.387831 -3.345842
                CHANNELS 3 Zrotation Xrotation Yrotation
                End Site
                {
                  OFFSET 0 0 0
                }
              }
              JOINT ThumbRight
              {
                OFFSET -3.396981 0.134209 -0.763572
                CHANNELS 3 Zrotation Xrotation Yrotation
                End Site
                {
                  OFFSET 0 0 0
                }
              }
            }
          }
        }
      }
    }
  }
  JOINT HipLeft
  {
    OFFSET -6.987494 1.392329 -4.674871
    CHANNELS 3 Zrotation Xrotation Yrotation
    JOINT KneeLeft
    {
      OFFSET -4.274120 -26.973712 2.816683
      CHANNELS 3 Zrotation Xrotation Yrotation
      JOINT AnkleLeft
      {
        OFFSET 0.727783 -48.607305 16.131082
        CHANNELS 3 Zrotation Xrotation Yrotation
        JOINT FootLeft
        {
          OFFSET -1.038088 -4.167598 -8.492181
          CHANNELS 3 Zrotation Xrotation Yrotation
          End Site
          {
            OFFSET 0 0 0
          }
        }
      }
    }
  }
  JOINT HipRight
  {
    OFFSET 5.973308 0.729998 -1.476072
    CHANNELS 3 Zrotation Xrotation Yrotation
    JOINT KneeRight
    {
      OFFSET 2.664108 -31.301601 5.695621
      CHANNELS 3 Zrotation Xrotation Yrotation
      JOINT AnkleRight
      {
        OFFSET 1.921646 -41.534318 13.793276
        CHANNELS 3 Zrotation Xrotation Yrotation
        JOINT FootRight
        {
          OFFSET 5.084246 -7.148228 -4.188567
          CHANNELS 3 Zrotation Xrotation Yrotation
          End Site
          {
            OFFSET 0 0 0
          }
        }
      }
    }
  }
}
MOTION
Frames: 13
Frame Time: 0.033333
54.411938 82.652759 368.759113 -0.062273 -2.080543 -4.042957 -0.349241 0.506119 4.024177 0.143856 0.406793 -0.006339 5.450000 -3.103820 1.517737 0.000000 0.000000 0.000000 1.495431 -3.539605 1.927530 -14.611444 4.074262 11.976778 3.470654 -0.428065 0.936464 0.439525 -2.126423 -7.723137 0.000000 0.000000 0.000000 0.000000 0.000000 0.000000 42.044253 47.571824 0.314198 -95.427559 -47.156383 -22.376376 84.243652 28.917888 -141.649283 8.332318 -5.798337 56.984337 0.000000 0.000000 0.000000 0.000000 0.000000 0.000000 -2.890774 4.056502 3.573187 3.854265 0.125747 1.127160 -3.884343 -42.835829 51.839531 0.000000 0.000000 0.000000 0.098146 5.653166 4.414360 -2.742673 -0.910810 -1.135970 0.898550 3.444047 5.706376 0.000000 0.000000 0.000000
54.612600 82.666558 368.720124 -0.209541 -1.838813 -3.231649 -0.461822 0.504426 3.204938 0.136079 0.376502 -0.018062 6.589821 -3.809671 1.793147 0.000000 0.000000 0.000000 2.219589 -3.907974 2.071840 -15.737780 4.783923 13.479609 -0.195208 -3.193481 -1.569062 2.689795 -0.531104 -5.964275 0.000000 0.000000 0.000000 0.000000 0.000000 0.000000 42.560201 47.175686 0.510855 -166.420149 -65.916369 -89.111496 115.315287 27.775629 173.858852 7.839021 -5.087857 55.894052 0.000000 0.000000 0.000000 0.000000 0.000000 0.000000 -2.451213 3.858101 2.759168 3.429462 -0.239317 1.020047 -7.912947 -33.930818 42.998227 0.000000 0.000000 0.000000 0.583780 5.998687 3.676404 -3.409736 -1.469235 -1.417904 0.950664 1.611994 4.784292 0.000000 0.000000 0.000000
54.800329 82.696474 368.684315 -0.493195 -1.605156 -2.367590 -0.583897 0.516615 2.326699 0.127796 0.359929 -0.036175 7.998573 -4.525608 2.113751 0.000000 0.000000 0.000000 2.610921 -4.794708 2.360915 -17.609004 4.884701 15.148405 0.961042 -3.412232 -3.240137 1.183472 0.690497 -3.241295 0.000000 0.000000 0.000000 0.000000 0.000000 0.000000 43.257394 46.688927 0.748423 -131.884823 -63.979857 -51.041753 109.221287 26.585818 -173.813823 12.067228 -5.567747 58.893540 0.000000 0.000000 0.000000 0.000000 0.000000 0.000000 -1.877636 3.557896 1.906262 2.855855 -0.292286 0.841443 -7.624185 -30.238343 36.994090 0.000000 0.000000 0.000000 0.931642 6.132595 2.830822 -3.536154 -2.067895 -1.535567 0.635918 0.288839 4.028359 0.000000 0.000000 0.000000
54.981362 82.737820 368.658403 -0.898810 -1.424008 -1.445479 -0.625892 0.506577 1.386254 0.138408 0.332732 -0.055483 9.173589 -4.746953 2.295291 0.000000 0.000000 0.000000 2.801387 -5.071067 2.416698 -18.092231 4.702904 15.725579 -1.638931 -3.376756 0.417723 3.926739 1.667013 -6.005442 0.000000 0.000000 0.000000 0.000000 0.000000 0.000000 43.482507 46.524850 0.961149 -26.849241 24.250739 -36.905664 19.027857 -1.242177 -60.448438 16.175149 -4.235323 61.301541 0.000000 0.000000 0.000000 0.000000 0.000000 0.000000 -1.314251 3.270934 0.993503 2.276056 0.041767 0.634723 -6.914699 -24.224295 28.249043 0.000000 0.000000 0.000000 0.996946 6.112544 1.860167 -2.918129 -2.975950 -1.438134 -1.629384 2.217270 6.157166 0.000000 0.000000 0.000000
55.118774 82.799834 368.638659 -1.455556 -1.242609 -0.537524 -0.663042 0.516482 0.454989 0.142249 0.311696 -0.081725 10.759062 -5.145977 2.580976 0.000000 0.000000 0.000000 2.618266 -6.071279 2.666729 -18.076805 5.225674 16.371592 -5.069868 -5.717607 -4.327840 5.198071 6.419370 1.754081 0.000000 0.000000 0.000000 0.000000 0.000000 0.000000 43.485275 46.581560 1.229758 -1.759165 22.093761 -56.397292 -0.408983 -10.129770 -51.025227 21.945917 -2.716024 62.777958 0.000000 0.000000 0.000000 0.000000 0.000000 0.000000 -0.797422 2.955016 0.084132 1.867414 0.917923 0.458122 -6.556559 -15.356899 20.359873 0.000000 0.000000 0.000000 1.398879 6.134700 0.927224 -2.527321 -3.766624 -1.389847 -2.090188 4.265498 7.419101 0.000000 0.000000 0.000000
55.270740 82.821895 368.648706 -2.107095 -1.043193 0.347693 -0.630542 0.510423 -0.454406 0.159121 0.282753 -0.108555 12.343494 -5.382698 2.832418 0.000000 0.000000 0.000000 2.463560 -6.898145 2.843753 -18.267435 5.307890 16.947164 -3.497240 -5.964512 -8.186105 3.430735 11.256608 9.780032 0.000000 0.000000 0.000000 0.000000 0.000000 0.000000 43.410299 46.786433 1.481050 1.530974 23.272947 -58.265847 -5.724234 -8.509269 -52.962318 30.684211 -0.838458 63.500655 0.000000 0.000000 0.000000 0.000000 0.000000 0.000000 -0.174827 2.632079 -0.803523 1.095259 2.143090 0.188089 -5.396609 -13.597030 18.064380 0.000000 0.000000 0.000000 1.735739 5.975718 -0.013502 -1.913863 -4.269179 -1.249949 -1.448687 5.064528 7.085558 0.000000 0.000000 0.000000
55.509447 82.851120 368.721383 -2.608630 -0.843991 1.176442 -0.540006 0.475430 -1.298565 0.196109 0.255682 -0.124703 13.362466 -5.690922 3.042869 0.000000 0.000000 0.000000 2.149986 -7.372907 2.883544 -18.336086 5.200354 17.469759 0.203407 -5.046799 -8.943491 -0.095967 11.679811 12.519392 0.000000 0.000000 0.000000 0.000000 0.000000 0.000000 42.257293 47.262118 1.829222 1.994047 21.387439 -57.306147 -7.772982 -5.924829 -53.989109 34.683787 0.509060 62.767180 0.000000 0.000000 0.000000 0.000000 0.000000 0.000000 0.155363 2.531837 -1.670744 0.875037 2.671156 0.106708 -5.410295 -17.067138 20.983966 0.000000 0.000000 0.000000 1.996448 5.873329 -0.876491 -1.552700 -4.608553 -1.190589 -0.422609 5.457851 6.510183 0.000000 0.000000 0.000000
55.763667 82.885719 368.808310 -3.029970 -0.622957 1.880245 -0.470768 0.436214 -2.012872 0.209725 0.239494 -0.139559 14.029566 -5.727117 3.121255 0.000000 0.000000 0.000000 1.978636 -7.534131 2.822876 -18.240933 5.003727 17.857856 4.296574 -3.762350 -8.313265 -2.419860 7.080969 8.218070 0.000000 0.000000 0.000000 0.000000 0.000000 0.000000 40.858352 48.027128 2.199801 3.576732 21.626518 -56.835591 -8.912204 -5.814829 -54.580563 38.165461 1.946800 61.613146 0.000000 0.000000 0.000000 0.000000 0.000000 0.000000 0.454226 2.626632 -2.436018 0.960973 2.634397 0.161188 -5.643202 -21.674026 25.024489 0.000000 0.000000 0.000000 2.036679 5.664816 -1.633816 -1.072948 -4.772575 -1.089355 1.909150 5.208904 4.710441 0.000000 0.000000 0.000000
56.073307 82.874054 368.930645 -3.306100 -0.401093 2.393436 -0.350379 0.376912 -2.528478 0.240800 0.228464 -0.143886 14.198512 -5.613566 3.092623 0.000000 0.000000 0.000000 1.780330 -7.362179 2.661230 -17.530591 5.144132 17.995436 1.957856 -3.290787 -3.389851 0.799524 7.785140 3.575158 0.000000 0.000000 0.000000 0.000000 0.000000 0.000000 39.077028 48.807946 2.610041 5.685985 23.063018 -56.569949 -9.956482 -6.497390 -55.245233 42.068733 2.957896 60.897288 0.000000 0.000000 0.000000 0.000000 0.000000 0.000000 0.576134 2.885947 -3.031162 1.259632 2.077227 0.294120 -4.909394 -30.506620 32.678172 0.000000 0.000000 0.000000 2.017713 5.591539 -2.172460 -0.820617 -4.919827 -1.067801 1.856065 5.711512 5.180810 0.000000 0.000000 0.000000
56.389431 82.833649 369.064633 -3.565933 -0.156168 2.624808 -0.304662 0.346028 -2.760724 0.229550 0.230153 -0.153522 14.790989 -5.617798 3.156598 0.000000 0.000000 0.000000 1.991676 -7.002794 2.473985 -17.316741 5.577314 19.138144 -3.747888 -5.005012 -1.091668 6.416849 7.796042 -1.150922 0.000000 0.000000 0.000000 0.000000 0.000000 0.000000 37.141668 49.426576 3.184262 8.614822 26.849068 -56.789243 -13.085476 -6.534666 -57.013050 48.506146 5.737983 59.462990 0.000000 0.000000 0.000000 0.000000 0.000000 0.000000 0.704201 3.185909 -3.347947 1.806018 1.046913 0.521209 -1.138817 -42.815790 46.844124 0.000000 0.000000 0.000000 1.856114 5.412834 -2.448980 -0.432308 -4.622068 -0.974093 3.697829 3.507298 2.843320 0.000000 0.000000 0.000000
56.702138 82.758688 369.219967 -3.734505 0.061466 2.516472 -0.314829 0.299296 -2.652552 0.222718 0.239798 -0.160932 15.224272 -5.642451 3.208366 0.000000 0.000000 0.000000 2.307081 -6.697817 2.340815 -18.034621 5.566949 20.652973 -6.522721 -5.390190 3.008537 9.980334 5.340636 -8.452145 0.000000 0.000000 0.000000 0.000000 0.000000 0.000000 35.005190 49.585217 3.851176 10.077607 29.370042 -55.941285 -14.611010 -6.169769 -58.098712 51.919773 6.641097 59.225665 0.000000 0.000000 0.000000 0.000000 0.000000 0.000000 0.714565 3.437635 -3.312019 1.893961 0.569480 0.590754 2.033997 -46.760971 49.842005 0.000000 0.000000 0.000000 1.509538 5.236397 -2.399381 -0.046022 -4.149778 -0.878764 6.130764 2.462192 1.145323 0.000000 0.000000 0.000000
56.918320 82.644901 369.391024 -3.881718 0.171122 2.212311 -0.346824 0.329039 -2.349014 0.187146 0.230729 -0.171905 15.529820 -5.722078 3.257918 0.000000 0.000000 0.000000 2.687517 -6.557901 2.292785 -19.297541 5.826755 22.993565 -10.312073 -6.375037 7.119642 14.171190 2.634225 -16.357708 0.000000 0.000000 0.000000 0.000000 0.000000 0.000000 33.284668 49.280514 4.442234 10.462873 31.952750 -54.687722 -14.946983 -6.689407 -58.331478 53.795187 7.391389 57.608238 0.000000 0.000000 0.000000 0.000000 0.000000 0.000000 0.760863 3.749211 -3.068529 2.060798 -0.243720 0.685040 -0.563553 -42.325779 44.290241 0.000000 0.000000 0.000000 1.161035 5.110812 -2.159508 0.344105 -3.686047 -0.772294 8.022980 2.701659 0.566261 0.000000 0.000000 0.000000
57.055839 82.493481 369.615707 -4.041677 0.129233 2.131420 -0.359474 0.396995 -2.272452 0.136246 0.214843 -0.184860 15.902182 -5.782637 3.321682 0.000000 0.000000 0.000000 2.945554 -6.463251 2.281954 -20.875191 5.878011 25.566318 -15.297012 -7.975701 10.953027 19.380052 0.551029 -23.381910 0.000000 0.000000 0.000000 0.000000 0.000000 0.000000 31.943473 48.727916 4.878996 9.881960 31.548608 -52.951954 -13.871329 -6.716786 -57.664519 51.862163 6.861465 57.546658 0.000000 0.000000 0.000000 0.000000 0.000000 0.000000 0.942517 3.818962 -2.990331 1.999237 -0.229096 0.674769 2.664536 -47.217537 50.669695 0.000000 0.000000 0.000000 1.316936 5.320240 -2.060640 0.094744 -4.152149 -0.914611 7.092389 6.201598 3.304196 0.000000 0.000000 0.000000
